<svg width="143" height="99" viewBox="0 0 143 99" fill="none" xmlns="http://www.w3.org/2000/svg">
<path d="M92.3055 24.9671C92.3055 36.4579 82.9904 45.773 71.4996 45.773M92.3055 24.9671C92.3055 13.4763 82.9904 4.16116 71.4996 4.16116M92.3055 24.9671H50.6937M71.4996 45.773C60.0088 45.773 50.6937 36.4579 50.6937 24.9671M71.4996 45.773C66.1571 40.1634 63.1772 32.7137 63.1772 24.9671C63.1772 17.2205 66.1571 9.77076 71.4996 4.16116M71.4996 45.773C76.8421 40.1634 79.822 32.7137 79.822 24.9671C79.822 17.2205 76.8421 9.77076 71.4996 4.16116M50.6937 24.9671C50.6937 13.4763 60.0088 4.16116 71.4996 4.16116" stroke="#155E75" stroke-width="4.99342" stroke-linecap="round" stroke-linejoin="round"/>
<path d="M0.0611131 71.014C0.685308 71.17 1.28024 71.287 1.84592 71.3651C2.4116 71.4431 2.909 71.5016 3.33814 71.5406C3.84529 71.5991 4.31344 71.6186 4.74257 71.5991C5.28874 71.5991 5.97146 71.5504 6.79071 71.4528C7.62947 71.3553 8.48774 71.2675 9.36551 71.1895C10.2433 71.092 11.0821 71.0335 11.8818 71.014C12.7011 70.9749 13.3643 71.0237 13.8714 71.1603C14.3786 71.2773 14.8955 71.4626 15.4222 71.7162C15.9683 71.9503 16.4657 72.2526 16.9144 72.6232C17.363 72.9743 17.7336 73.3937 18.0262 73.8814C18.3188 74.3495 18.4846 74.8859 18.5236 75.4906C18.5041 76.2513 18.3286 76.9633 17.997 77.6265C17.7239 78.1922 17.2655 78.7774 16.6218 79.3821C15.9781 79.9673 15.0515 80.4159 13.8422 80.728C14.4468 80.806 14.9638 80.9426 15.3929 81.1376C15.8415 81.3132 16.2219 81.5277 16.534 81.7813C16.8656 82.0154 17.1289 82.2787 17.324 82.5713C17.5386 82.8639 17.7044 83.1565 17.8214 83.4491C18.114 84.1318 18.2505 84.8925 18.231 85.7313C18.114 86.8236 17.8897 87.6917 17.5581 88.3354C17.246 88.9791 16.8851 89.4765 16.4755 89.8276C16.0659 90.1787 15.6465 90.4225 15.2173 90.5591C14.7882 90.6956 14.3981 90.8029 14.047 90.8809C13.6959 90.9589 13.2667 90.9979 12.7596 90.9979C12.2524 90.9979 11.7062 90.9882 11.1211 90.9687C10.5554 90.9297 9.9702 90.9004 9.36551 90.8809C8.76083 90.8419 8.1854 90.8419 7.63923 90.8809C7.19059 90.9199 6.64442 90.9589 6.00072 90.9979C5.45455 91.037 4.77183 91.0857 3.95258 91.1442C3.13332 91.1833 2.17752 91.232 1.08518 91.2905C1.29975 91.1345 1.4753 90.9589 1.61185 90.7639C1.7679 90.5493 1.89468 90.364 1.99222 90.2079C2.08975 90.0129 2.17752 89.8276 2.25555 89.652C2.31407 89.496 2.36283 89.0668 2.40184 88.3646C2.44086 87.6624 2.47011 86.8236 2.48962 85.8483C2.50913 84.8535 2.51888 83.7904 2.51888 82.6591C2.53839 81.5082 2.52863 80.4061 2.48962 79.3528C2.47011 78.28 2.4311 77.3339 2.37258 76.5147C2.33357 75.6759 2.27505 75.0712 2.19703 74.7006C2.07999 74.291 1.92394 73.8716 1.72888 73.4425C1.57283 73.0719 1.34851 72.672 1.05592 72.2428C0.782838 71.8137 0.451235 71.4041 0.0611131 71.014ZM6.23479 73.9984C6.23479 74.0764 6.24454 74.3397 6.26405 74.7884C6.28355 75.1785 6.30306 75.7832 6.32257 76.6025C6.36158 77.4022 6.41034 78.5433 6.46886 80.0258C6.95651 80.2403 7.43441 80.3574 7.90256 80.3769C8.3707 80.3769 8.79009 80.3574 9.1607 80.3184C9.58983 80.2598 9.99946 80.1623 10.3896 80.0258C10.9162 79.8112 11.3259 79.4601 11.6185 78.9724C11.9306 78.4848 12.1354 77.9776 12.2329 77.451C12.3499 76.9048 12.3792 76.3976 12.3207 75.9295C12.2622 75.4418 12.1354 75.0907 11.9403 74.8762C11.5697 74.5446 11.1113 74.2715 10.5651 74.0569C10.097 73.8814 9.50206 73.7643 8.78033 73.7058C8.07811 73.6278 7.2296 73.7253 6.23479 73.9984ZM6.08849 87.8672C6.81022 88.2378 7.44417 88.4817 7.99034 88.5987C8.53651 88.7157 8.9949 88.7742 9.36551 88.7742C9.79465 88.7742 10.1653 88.7157 10.4774 88.5987C10.848 88.4231 11.2088 88.1891 11.5599 87.8965C11.9306 87.5844 12.2036 87.2235 12.3792 86.8139C12.5743 86.3848 12.6523 85.9166 12.6133 85.4094C12.5743 84.8828 12.3499 84.3074 11.9403 83.6832C11.5697 83.2345 11.1211 82.8834 10.5944 82.6298C10.1263 82.4153 9.53132 82.2787 8.80959 82.2202C8.10737 82.1617 7.23935 82.3275 6.20553 82.7176L6.08849 87.8672Z" fill="#14B8A6"/>
<path d="M19.1205 78.8554L24.5042 78.9139C24.1921 80.1038 23.958 81.1181 23.802 81.9569C23.6654 82.7956 23.5776 83.4979 23.5386 84.0635C23.4606 84.7072 23.4411 85.2534 23.4801 85.702C23.5386 86.1117 23.6362 86.5506 23.7727 87.0187C23.8897 87.4088 24.0653 87.8575 24.2994 88.3646C24.5334 88.8718 24.8455 89.3789 25.2357 89.8861C25.0016 89.8081 24.748 89.7496 24.4749 89.7105C24.2018 89.6715 23.9483 89.6423 23.7142 89.6228C23.4411 89.6033 23.168 89.6033 22.8949 89.6228C22.6219 89.6423 22.3195 89.6715 21.9879 89.7105C21.7148 89.7496 21.3832 89.7983 20.9931 89.8568C20.603 89.9154 20.1933 89.9934 19.7642 90.0909C20.0568 89.2131 20.2811 88.4524 20.4372 87.8087C20.6127 87.165 20.7395 86.6286 20.8175 86.1994C20.8956 85.6923 20.9443 85.2827 20.9638 84.9706C20.9638 84.5804 20.9638 84.1416 20.9638 83.6539C20.9638 83.1467 20.9638 82.6591 20.9638 82.1909C20.9638 81.7228 20.9541 81.3132 20.9346 80.9621C20.9151 80.5914 20.8761 80.3574 20.8175 80.2598L20.5249 79.9673C20.4079 79.8697 20.2324 79.7332 19.9983 79.5576C19.7837 79.3626 19.4911 79.1285 19.1205 78.8554ZM21.1979 74.3495C21.6075 74.1349 22.0172 74.0764 22.4268 74.1739C22.8559 74.2715 23.1875 74.4568 23.4216 74.7299C23.6557 75.003 23.7337 75.3248 23.6557 75.6954C23.5972 76.066 23.2851 76.4269 22.7194 76.778C22.1537 77.1096 21.6563 77.2266 21.2272 77.1291C20.798 77.0316 20.4957 76.8268 20.3201 76.5147C20.1446 76.2026 20.1153 75.8417 20.2324 75.4321C20.3494 75.003 20.6712 74.6421 21.1979 74.3495Z" fill="#0F766E"/>
<path d="M24.0477 76.9828C24.4379 77.0413 24.789 77.0901 25.1011 77.1291C25.3937 77.1486 25.657 77.1681 25.8911 77.1876C26.1446 77.2071 26.3885 77.2169 26.6225 77.2169C26.8371 77.2169 27.1102 77.2071 27.4418 77.1876C27.7149 77.1681 28.066 77.1486 28.4951 77.1291C28.9438 77.0901 29.4704 77.0413 30.0751 76.9828C30.0361 77.0608 29.9581 77.3047 29.8411 77.7143C29.724 78.1044 29.607 78.5921 29.4899 79.1773C29.3729 79.7429 29.2656 80.3769 29.1681 81.0791C29.0901 81.7618 29.0511 82.4445 29.0511 83.1272C29.0706 83.7904 29.1583 84.4244 29.3144 85.0291C29.4704 85.6143 29.724 86.0922 30.0751 86.4628C30.8164 87.2235 31.4698 87.6819 32.0355 87.838C32.6207 87.994 33.1278 87.9745 33.557 87.7794C33.9861 87.5844 34.3372 87.2918 34.6103 86.9017C34.8834 86.5115 35.0784 86.1507 35.1955 85.8191C35.4881 84.9218 35.6636 83.9758 35.7221 82.9809C35.7611 82.1227 35.6929 81.1669 35.5173 80.1135C35.3418 79.0602 34.9224 77.9874 34.2592 76.895C34.7663 76.9341 35.2052 76.9633 35.5758 76.9828C35.9465 77.0023 36.2683 77.0218 36.5414 77.0413C36.8535 77.0608 37.1266 77.0804 37.3606 77.0999C37.5752 77.1194 37.8288 77.1194 38.1214 77.0999C38.375 77.0999 38.6773 77.0901 39.0284 77.0706C39.399 77.0316 39.8087 76.9926 40.2573 76.9536C40.3353 78.8652 40.4036 80.5719 40.4621 82.0739C40.5206 83.5564 40.5596 84.873 40.5791 86.0239C40.6182 87.1552 40.6377 88.1403 40.6377 88.9791C40.6377 89.7983 40.6377 90.4908 40.6377 91.0565C40.6182 92.4024 40.5596 93.2899 40.4621 93.719C40.3061 94.3237 40.0232 94.9284 39.6136 95.5331C39.2235 96.1378 38.7261 96.6742 38.1214 97.1424C37.5167 97.63 36.8145 98.0006 36.0147 98.2542C35.2345 98.5273 34.3762 98.6248 33.4399 98.5468C32.5231 98.4688 31.7917 98.342 31.2455 98.1664C30.7188 98.0104 30.2994 97.8251 29.9873 97.6105C29.6948 97.3959 29.4802 97.1716 29.3436 96.9375C29.2266 96.7035 29.1388 96.4596 29.0803 96.2061C29.0218 95.972 28.9633 95.7477 28.9048 95.5331C28.8462 95.3185 28.7292 95.1332 28.5536 94.9772C28.3391 94.8016 28.1148 94.6261 27.8807 94.4505C27.6661 94.2945 27.432 94.1384 27.1785 93.9824C26.9444 93.8263 26.7103 93.6995 26.4763 93.602L32.7084 93.2509C32.5329 93.485 32.4061 93.6995 32.3281 93.8946C32.2501 94.0897 32.2013 94.2555 32.1818 94.392C32.1623 94.5676 32.172 94.7139 32.211 94.8309C32.2891 95.065 32.4256 95.3185 32.6207 95.5916C32.8352 95.8842 33.1083 96.1085 33.4399 96.2646C33.7715 96.4401 34.1616 96.4987 34.6103 96.4401C35.0784 96.3816 35.6051 96.1378 36.1903 95.7087C36.6779 95.338 37.0876 94.7431 37.4192 93.9239C37.6922 93.2216 37.9068 92.2366 38.0629 90.9687C38.2189 89.7008 38.1897 88.033 37.9751 85.9654C37.624 87.1748 37.1461 88.1013 36.5414 88.745C35.9367 89.3887 35.332 89.8568 34.7273 90.1494C34.0251 90.5005 33.2936 90.6858 32.5329 90.7054C31.5186 90.6663 30.6506 90.5395 29.9288 90.325C29.2071 90.0909 28.6122 89.7788 28.144 89.3887C27.6759 88.9986 27.3053 88.5402 27.0322 88.0135C26.7786 87.4673 26.5933 86.8627 26.4763 86.1994C26.3592 85.5362 26.3007 84.873 26.3007 84.2098C26.3007 83.5271 26.3007 82.8932 26.3007 82.308C26.3202 81.7228 26.33 81.1961 26.33 80.728C26.33 80.2403 26.2812 79.8502 26.1837 79.5576C26.0666 79.265 25.9106 78.9724 25.7155 78.6799C25.5595 78.4263 25.3449 78.1532 25.0718 77.8606C24.7792 77.5485 24.4379 77.2559 24.0477 76.9828Z" fill="#6366F1"/>
<path d="M44.0434 80.0843C44.141 79.9673 44.1995 79.7527 44.219 79.4406C44.258 79.109 44.336 78.7384 44.4531 78.3287C44.5896 77.9191 44.8139 77.49 45.126 77.0413C45.4381 76.5927 45.9453 76.1733 46.6475 75.7832C47.3302 75.3931 47.9934 75.159 48.6371 75.081C49.2808 75.003 49.8953 75.0322 50.4804 75.1688C51.0656 75.3053 51.6118 75.5199 52.119 75.8125C52.6456 76.105 53.1235 76.4269 53.5526 76.778C53.8452 77.0121 54.0793 77.3534 54.2549 77.8021C54.4304 78.2312 54.567 78.7189 54.6645 79.265C54.762 79.8112 54.8303 80.3866 54.8693 80.9913C54.9278 81.5765 54.9668 82.1519 54.9863 82.7176C55.0059 83.2638 55.0156 83.7709 55.0156 84.2391C55.0351 84.6877 55.0741 85.0583 55.1326 85.3509C55.2107 85.7801 55.3472 86.1507 55.5423 86.4628C55.7373 86.7554 55.9519 87.0089 56.186 87.2235C56.42 87.4186 56.6541 87.5746 56.8882 87.6917C57.1223 87.8087 57.3271 87.8965 57.5026 87.955C57.6197 88.0135 57.7269 88.0525 57.8245 88.072C58.0195 88.1501 58.1561 88.1501 58.2341 88.072C58.1171 88.3451 58.0098 88.5792 57.9123 88.7742C57.8147 88.9693 57.7367 89.1351 57.6782 89.2717C57.6002 89.4277 57.5319 89.5545 57.4734 89.652C57.4149 89.7691 57.3466 89.8763 57.2686 89.9739C57.21 90.0714 57.132 90.1787 57.0345 90.2957C56.937 90.4128 56.8394 90.5395 56.7419 90.6761C56.4883 90.5786 56.2445 90.4615 56.0104 90.325C55.7958 90.1884 55.6008 90.0617 55.4252 89.9446C55.2107 89.8081 55.0156 89.6715 54.84 89.535C54.6645 89.3984 54.4987 89.2424 54.3426 89.0668C54.2061 88.9108 54.0598 88.745 53.9038 88.5694C53.7672 88.3939 53.6502 88.1988 53.5526 87.9843C53.4356 88.2378 53.1528 88.5987 52.7041 89.0668C52.275 89.535 51.7093 89.9641 51.0071 90.3542C50.3049 90.7249 49.4856 90.9882 48.5493 91.1442C47.6326 91.3003 46.6182 91.193 45.5064 90.8224C45.0187 90.6663 44.5603 90.442 44.1312 90.1494C43.7021 89.8373 43.3315 89.4667 43.0194 89.0376C42.7268 88.6084 42.5122 88.1208 42.3757 87.5746C42.2586 87.0089 42.2684 86.3848 42.4049 85.702C42.5415 85.0193 42.7853 84.4439 43.1364 83.9758C43.4875 83.5076 43.9069 83.1272 44.3945 82.8346C44.8822 82.5421 45.4284 82.3177 46.0331 82.1617C46.6377 82.0056 47.2619 81.8984 47.9056 81.8398C48.4128 81.8203 48.92 81.8496 49.4271 81.9276C49.8562 82.0056 50.3049 82.1519 50.773 82.3665C51.2412 82.5616 51.6411 82.8639 51.9727 83.2735C51.9531 82.2397 51.9141 81.4205 51.8556 80.8158C51.8166 80.1916 51.7776 79.7137 51.7386 79.3821C51.6606 78.9919 51.5923 78.7189 51.5338 78.5628C51.4362 78.4263 51.329 78.2702 51.2119 78.0947C51.1144 77.9191 50.9876 77.7631 50.8315 77.6265C50.6755 77.4705 50.4804 77.3437 50.2464 77.2462C50.0123 77.1486 49.7392 77.1096 49.4271 77.1291C49.0955 77.1486 48.8322 77.2364 48.6371 77.3924C48.4421 77.5485 48.286 77.7338 48.169 77.9484C48.0714 78.1434 48.0129 78.358 47.9934 78.5921C47.9739 78.8261 47.9837 79.031 48.0227 79.2065C48.0617 79.3236 48.1202 79.4503 48.1982 79.5869C48.2763 79.7039 48.3835 79.8307 48.5201 79.9673C48.6566 80.1038 48.8419 80.2208 49.076 80.3184C48.6274 80.3769 48.2275 80.4256 47.8764 80.4647C47.5253 80.4842 47.2229 80.5134 46.9693 80.5524C46.6768 80.5914 46.4232 80.6207 46.2086 80.6402C45.994 80.6597 45.7405 80.6987 45.4479 80.7572C45.1943 80.7963 44.8822 80.845 44.5116 80.9035C44.141 80.9621 43.7118 81.0401 43.2242 81.1376C43.3412 81.0011 43.4485 80.8743 43.546 80.7572C43.6436 80.6207 43.7313 80.5037 43.8094 80.4061C43.8874 80.2891 43.9654 80.1818 44.0434 80.0843ZM48.4323 83.5661C48.0812 83.5856 47.7301 83.6734 47.379 83.8295C47.0279 83.966 46.7158 84.1708 46.4427 84.4439C46.1696 84.6975 45.9355 84.9998 45.7405 85.3509C45.5649 85.6825 45.4771 86.0532 45.4771 86.4628C45.4771 86.8724 45.5747 87.2333 45.7697 87.5454C45.9843 87.838 46.2574 88.0818 46.589 88.2768C46.9401 88.4719 47.3107 88.5889 47.7008 88.628C48.1105 88.667 48.5103 88.628 48.9004 88.5109C49.2711 88.3744 49.6222 88.1598 49.9538 87.8672C50.2854 87.5551 50.5682 87.2235 50.8023 86.8724C51.0364 86.5018 51.2022 86.1409 51.2997 85.7898C51.3972 85.4192 51.407 85.1169 51.329 84.8828C51.1729 84.3756 50.8218 84.0245 50.2756 83.8295C49.7295 83.6149 49.115 83.5271 48.4323 83.5661Z" fill="#DB2777"/>
<path d="M56.8999 77.9191C57.2705 77.9386 57.6021 77.9484 57.8947 77.9484C58.2068 77.9289 58.4701 77.9094 58.6847 77.8899C58.9383 77.8703 59.1626 77.8508 59.3577 77.8313C59.6502 77.7923 59.9526 77.7436 60.2647 77.685C60.5378 77.646 60.8206 77.5973 61.1132 77.5387C61.4253 77.4607 61.7276 77.3729 62.0202 77.2754C61.9032 77.568 61.8057 77.8216 61.7276 78.0362C61.6496 78.2507 61.5911 78.436 61.5521 78.5921C61.4936 78.7676 61.4643 78.9139 61.4643 79.031C61.4448 79.1675 61.4351 79.3333 61.4351 79.5284C61.4155 79.86 61.4155 80.3964 61.4351 81.1376C62.4494 80.2598 63.2979 79.5771 63.9806 79.0895C64.6828 78.6018 65.2387 78.2215 65.6484 77.9484C66.136 77.6363 66.5164 77.4315 66.7895 77.3339C67.5112 77.2169 68.1451 77.3827 68.6913 77.8313C68.9254 78.0264 69.1497 78.2897 69.3643 78.6213C69.5788 78.9334 69.7642 79.3528 69.9202 79.8795C70.0762 80.4061 70.1933 81.0401 70.2713 81.7813C70.3493 82.503 70.3591 83.3711 70.3006 84.3854C69.8909 84.4244 69.5203 84.4634 69.1887 84.5024C68.8766 84.5414 68.6133 84.5707 68.3987 84.5902C68.1451 84.6292 67.9111 84.6487 67.6965 84.6487L66.9065 84.7365C66.6334 84.7755 66.2921 84.8145 65.8824 84.8535C65.4923 84.873 65.0144 84.912 64.4487 84.9706C65.268 84.3074 65.7947 83.7319 66.0287 83.2443C66.2823 82.7371 66.3896 82.3177 66.3506 81.9861C66.3116 81.6155 66.136 81.2937 65.8239 81.0206C65.4533 80.806 65.0534 80.728 64.6243 80.7865C64.2537 80.8255 63.8245 80.9913 63.3369 81.2839C62.8492 81.5765 62.3323 82.1227 61.7862 82.9224C61.8252 84.1708 61.8642 85.2046 61.9032 86.0239C61.9617 86.8431 62.0105 87.5064 62.0495 88.0135C62.108 88.5987 62.1568 89.0571 62.1958 89.3887C62.2543 89.6813 62.3713 89.9934 62.5469 90.325C62.6834 90.5981 62.8785 90.9004 63.1321 91.232C63.3857 91.5636 63.7173 91.8952 64.1269 92.2268C63.2686 92.1878 62.5664 92.1878 62.0202 92.2268C61.6886 92.2463 61.396 92.2658 61.1425 92.2853C60.8694 92.3244 60.5768 92.3634 60.2647 92.4024C59.9916 92.4414 59.6698 92.4804 59.2991 92.5194C58.948 92.5779 58.5579 92.6365 58.1288 92.695C58.2848 92.4804 58.4116 92.2268 58.5091 91.9342C58.6067 91.6611 58.6847 91.3978 58.7432 91.1442C58.8212 90.8516 58.8798 90.5493 58.9188 90.2372C58.9383 89.9641 58.948 89.5545 58.948 89.0083C58.9675 88.4622 58.9578 87.8477 58.9188 87.165C58.8993 86.4628 58.87 85.7411 58.831 84.9998C58.792 84.2391 58.7432 83.5271 58.6847 82.8639C58.6262 82.2007 58.5579 81.6253 58.4799 81.1376C58.4214 80.6305 58.3531 80.2793 58.2751 80.0843C58.1775 79.8502 58.0605 79.6161 57.924 79.3821C57.8069 79.1675 57.6606 78.9432 57.4851 78.7091C57.3095 78.4555 57.1145 78.1922 56.8999 77.9191Z" fill="#06B6D4"/>
<path d="M83.6837 75.2273C83.5081 75.6564 83.3521 76.0465 83.2155 76.3976C83.0985 76.7487 82.9912 77.0608 82.8937 77.3339C82.7962 77.646 82.7084 77.9191 82.6304 78.1532C82.5523 78.4263 82.4646 78.7384 82.367 79.0895C82.2695 79.4016 82.1427 79.7917 81.9867 80.2598C81.8501 80.7085 81.6843 81.2449 81.4893 81.8691C81.3332 80.9328 81.0504 80.1916 80.6407 79.6454C80.2311 79.0797 79.8117 78.6408 79.3826 78.3287C78.8754 77.9776 78.3293 77.7241 77.7441 77.568C76.6908 77.3924 75.93 77.412 75.4619 77.6265C74.9937 77.8411 74.6816 78.1142 74.5256 78.4458C74.4476 78.5823 74.3598 78.7579 74.2623 78.9724C74.1842 79.1675 74.116 79.3723 74.0574 79.5869C74.0184 79.8015 74.0087 80.016 74.0282 80.2306C74.0477 80.4452 74.1355 80.6207 74.2915 80.7572C74.389 80.8548 74.6426 80.9913 75.0522 81.1669C75.4619 81.3229 75.9495 81.5082 76.5152 81.7228C77.1004 81.9179 77.7148 82.1324 78.3585 82.3665C79.0217 82.6006 79.6459 82.8346 80.2311 83.0687C80.8163 83.3028 81.3235 83.5369 81.7526 83.7709C82.1817 84.005 82.4646 84.2196 82.6011 84.4146C82.7181 84.6097 82.8449 84.873 82.9815 85.2046C83.1375 85.5167 83.2448 85.8678 83.3033 86.258C83.3813 86.6286 83.4009 87.0187 83.3618 87.4283C83.3423 87.8185 83.2351 88.2086 83.04 88.5987C82.8449 88.9888 82.5328 89.3497 82.1037 89.6813C81.6941 90.0129 81.1381 90.286 80.4359 90.5005C79.6167 90.7541 78.8267 90.8224 78.0659 90.7054C77.3052 90.5883 76.603 90.4128 75.9593 90.1787C75.3351 89.9446 74.7889 89.7203 74.3208 89.5057C73.8526 89.2717 73.521 89.1741 73.326 89.2131C73.1114 89.2521 72.8676 89.3594 72.5945 89.535C72.3214 89.7105 72.0581 89.8958 71.8045 90.0909C71.5704 90.2665 71.3656 90.4323 71.19 90.5883C71.0145 90.7249 70.9267 90.7736 70.9267 90.7346C70.9267 90.6956 70.956 90.5786 71.0145 90.3835C71.0925 90.1884 71.1705 89.9544 71.2486 89.6813C71.3461 89.3887 71.4339 89.0766 71.5119 88.745C71.6094 88.3939 71.6777 88.0623 71.7167 87.7502C71.7557 87.4966 71.8045 87.1845 71.863 86.8139C71.902 86.4823 71.9508 86.0824 72.0093 85.6143C72.0873 85.1266 72.1751 84.5414 72.2726 83.8587C72.3702 84.3659 72.5067 84.8048 72.6823 85.1754C72.8773 85.546 73.0626 85.8678 73.2382 86.1409C73.4528 86.453 73.6576 86.7164 73.8526 86.9309C74.1452 87.204 74.4866 87.4576 74.8767 87.6917C75.2863 87.9257 75.6959 88.1305 76.1056 88.3061C76.5152 88.4622 76.9053 88.5597 77.2759 88.5987C77.6466 88.6377 77.9587 88.5987 78.2122 88.4817C78.4658 88.3646 78.6804 88.1501 78.8559 87.838C79.051 87.5259 79.1875 87.1845 79.2656 86.8139C79.3436 86.4433 79.3728 86.0922 79.3533 85.7606C79.3338 85.4094 79.2461 85.1266 79.09 84.912C78.973 84.7755 78.6999 84.5999 78.2708 84.3854C77.8611 84.1708 77.3637 83.9367 76.7785 83.6832C76.2129 83.4296 75.6082 83.1663 74.9645 82.8932C74.3403 82.6201 73.7453 82.347 73.1797 82.0739C72.6335 81.7813 72.1751 81.5082 71.8045 81.2547C71.4534 80.9816 71.2583 80.7377 71.2193 80.5232C71.1803 80.2111 71.151 79.8697 71.1315 79.4991C71.112 79.109 71.1315 78.7286 71.19 78.358C71.2681 77.9679 71.4046 77.5973 71.5997 77.2462C71.8142 76.895 72.1263 76.6025 72.536 76.3684C72.809 76.2123 73.1699 76.0953 73.6186 76.0173C74.0672 75.9392 74.5646 75.9002 75.1108 75.9002C75.6569 75.8807 76.2226 75.9002 76.8078 75.9588C77.393 75.9978 77.9489 76.0563 78.4756 76.1343C79.0217 76.1928 79.5094 76.2708 79.9385 76.3684C80.3872 76.4659 80.7285 76.5537 80.9626 76.6317C81.2357 76.7292 81.5283 76.739 81.8404 76.661C82.1135 76.6025 82.406 76.4757 82.7181 76.2806C83.0302 76.0855 83.3521 75.7344 83.6837 75.2273ZM91.8294 78.8261C92.3366 78.8261 92.8633 78.9237 93.4094 79.1187C93.9556 79.2943 94.4823 79.5284 94.9894 79.821C95.4966 80.094 95.955 80.3964 96.3646 80.728C96.7937 81.0401 97.1448 81.3424 97.4179 81.635C97.9056 82.1617 98.2372 82.8737 98.4127 83.7709C98.6078 84.6487 98.6468 85.5557 98.5298 86.492C98.4127 87.4088 98.1397 88.2768 97.7105 89.0961C97.2814 89.9154 96.6864 90.52 95.9257 90.9102C95.3795 91.1833 94.8431 91.3978 94.3165 91.5539C93.7898 91.7099 93.2826 91.827 92.795 91.905C92.3073 91.983 91.8489 92.022 91.4198 92.022C90.9907 92.022 90.6201 92.0123 90.308 91.9928C89.7228 91.9537 89.1083 91.7489 88.4646 91.3783C87.8404 91.0077 87.2455 90.5493 86.6798 90.0031C86.1337 89.457 85.6655 88.862 85.2754 88.2183C84.8853 87.5551 84.6512 86.9309 84.5732 86.3457C84.4561 85.546 84.4366 84.7072 84.5147 83.8295C84.5927 82.9517 84.8755 82.1422 85.3632 81.4009C85.8703 80.6597 86.6311 80.0453 87.6454 79.5576C88.6792 79.07 90.0739 78.8261 91.8294 78.8261ZM90.8639 90.1787C91.0785 90.2177 91.371 90.1689 91.7417 90.0324C92.1123 89.8763 92.4731 89.6325 92.8242 89.3009C93.1949 88.9693 93.5167 88.5499 93.7898 88.0428C94.0824 87.5161 94.2579 86.8822 94.3165 86.1409C94.375 85.4192 94.375 84.756 94.3165 84.1513C94.2774 83.5466 94.1897 83.02 94.0531 82.5713C93.9166 82.1032 93.7605 81.7228 93.585 81.4302C93.4094 81.1376 93.2241 80.9328 93.0291 80.8158C92.6975 80.6402 92.2976 80.5037 91.8294 80.4061C91.3613 80.2891 90.9614 80.3086 90.6298 80.4647C90.4738 80.5427 90.2787 80.7085 90.0446 80.9621C89.8106 81.2156 89.5765 81.5375 89.3424 81.9276C89.1083 82.2982 88.8938 82.7274 88.6987 83.215C88.5232 83.7027 88.3964 84.2098 88.3183 84.7365C88.2403 85.2632 88.2208 85.8288 88.2598 86.4335C88.3183 87.0382 88.4451 87.6136 88.6402 88.1598C88.8353 88.6865 89.1083 89.1449 89.4594 89.535C89.8301 89.9056 90.2982 90.1202 90.8639 90.1787ZM115.541 81.5472C115.307 81.5082 115.014 81.479 114.663 81.4595C114.332 81.44 114.01 81.4302 113.698 81.4302C113.347 81.4302 112.976 81.44 112.586 81.4595C112.176 81.479 111.767 81.4985 111.357 81.518C111.006 81.5375 110.606 81.5668 110.157 81.6058C109.728 81.6253 109.309 81.6545 108.899 81.6935C109.055 81.6155 109.192 81.5082 109.309 81.3717C109.445 81.2351 109.562 81.0986 109.66 80.9621C109.757 80.806 109.845 80.6402 109.923 80.4647C110.021 80.1721 110.011 79.821 109.894 79.4113C109.777 78.9822 109.562 78.5921 109.25 78.241C108.958 77.8899 108.577 77.6168 108.109 77.4217C107.661 77.2071 107.163 77.1584 106.617 77.2754C106.032 77.412 105.505 77.6168 105.037 77.8899C104.588 78.1629 104.208 78.5433 103.896 79.031C103.603 79.4991 103.389 80.0843 103.252 80.7865C103.135 81.4692 103.106 82.2885 103.164 83.2443C103.242 84.4341 103.438 85.3802 103.75 86.0824C104.062 86.7846 104.442 87.3113 104.891 87.6624C105.339 88.0135 105.827 88.2281 106.354 88.3061C106.9 88.3646 107.436 88.3646 107.963 88.3061C108.334 88.2281 108.675 88.0623 108.987 87.8087C109.241 87.5941 109.475 87.282 109.689 86.8724C109.904 86.4628 110.001 85.8971 109.982 85.1754L113.551 85.0291C113.142 86.1799 112.644 87.0967 112.059 87.7794C111.474 88.4426 110.908 88.9596 110.362 89.3302C109.718 89.7593 109.075 90.0519 108.431 90.2079C107.631 90.3445 106.919 90.403 106.295 90.3835C105.671 90.3445 105.105 90.247 104.598 90.0909C104.091 89.9349 103.623 89.7398 103.194 89.5057C102.765 89.2717 102.355 89.0181 101.965 88.745C101.711 88.5694 101.428 88.2768 101.116 87.8672C100.804 87.4576 100.512 86.9699 100.239 86.4043C99.9654 85.8191 99.7411 85.1754 99.5655 84.4732C99.39 83.7709 99.3217 83.0492 99.3607 82.308C99.3997 81.5472 99.5753 80.7865 99.8874 80.0258C100.199 79.265 100.697 78.5336 101.38 77.8313C102.413 76.778 103.516 76.0953 104.686 75.7832C105.876 75.4516 106.997 75.3638 108.051 75.5199C109.104 75.6564 110.04 75.9588 110.86 76.4269C111.679 76.895 112.254 77.4022 112.586 77.9484C112.917 78.4945 113.161 78.9139 113.317 79.2065C113.493 79.4796 113.62 79.6942 113.698 79.8502C113.795 79.9868 113.873 80.094 113.932 80.1721C114.01 80.2306 114.117 80.3184 114.254 80.4354C114.351 80.5329 114.468 80.6402 114.605 80.7572C114.722 80.8548 114.858 80.9718 115.014 81.1084C115.17 81.2449 115.346 81.3912 115.541 81.5472ZM114.353 78.8554L119.737 78.9139C119.425 80.1038 119.191 81.1181 119.035 81.9569C118.898 82.7956 118.81 83.4979 118.771 84.0635C118.693 84.7072 118.674 85.2534 118.713 85.702C118.771 86.1117 118.869 86.5506 119.005 87.0187C119.122 87.4088 119.298 87.8575 119.532 88.3646C119.766 88.8718 120.078 89.3789 120.468 89.8861C120.234 89.8081 119.981 89.7496 119.708 89.7105C119.434 89.6715 119.181 89.6423 118.947 89.6228C118.674 89.6033 118.401 89.6033 118.128 89.6228C117.854 89.6423 117.552 89.6715 117.22 89.7105C116.947 89.7496 116.616 89.7983 116.226 89.8568C115.836 89.9154 115.426 89.9934 114.997 90.0909C115.289 89.2131 115.514 88.4524 115.67 87.8087C115.845 87.165 115.972 86.6286 116.05 86.1994C116.128 85.6923 116.177 85.2827 116.196 84.9706C116.196 84.5804 116.196 84.1416 116.196 83.6539C116.196 83.1467 116.196 82.6591 116.196 82.1909C116.196 81.7228 116.187 81.3132 116.167 80.9621C116.148 80.5914 116.109 80.3574 116.05 80.2598L115.758 79.9673C115.641 79.8697 115.465 79.7332 115.231 79.5576C115.016 79.3626 114.724 79.1285 114.353 78.8554ZM116.43 74.3495C116.84 74.1349 117.25 74.0764 117.659 74.1739C118.089 74.2715 118.42 74.4568 118.654 74.7299C118.888 75.003 118.966 75.3248 118.888 75.6954C118.83 76.066 118.518 76.4269 117.952 76.778C117.386 77.1096 116.889 77.2266 116.46 77.1291C116.031 77.0316 115.728 76.8268 115.553 76.5147C115.377 76.2026 115.348 75.8417 115.465 75.4321C115.582 75.003 115.904 74.6421 116.43 74.3495ZM122.967 80.0843C123.065 79.9673 123.123 79.7527 123.143 79.4406C123.182 79.109 123.26 78.7384 123.377 78.3287C123.513 77.9191 123.737 77.49 124.05 77.0413C124.362 76.5927 124.869 76.1733 125.571 75.7832C126.254 75.3931 126.917 75.159 127.561 75.081C128.204 75.003 128.819 75.0322 129.404 75.1688C129.989 75.3053 130.535 75.5199 131.043 75.8125C131.569 76.105 132.047 76.4269 132.476 76.778C132.769 77.0121 133.003 77.3534 133.178 77.8021C133.354 78.2312 133.491 78.7189 133.588 79.265C133.686 79.8112 133.754 80.3866 133.793 80.9913C133.851 81.5765 133.89 82.1519 133.91 82.7176C133.929 83.2638 133.939 83.7709 133.939 84.2391C133.959 84.6877 133.998 85.0583 134.056 85.3509C134.134 85.7801 134.271 86.1507 134.466 86.4628C134.661 86.7554 134.875 87.0089 135.11 87.2235C135.344 87.4186 135.578 87.5746 135.812 87.6917C136.046 87.8087 136.251 87.8965 136.426 87.955C136.543 88.0135 136.651 88.0525 136.748 88.072C136.943 88.1501 137.08 88.1501 137.158 88.072C137.041 88.3451 136.933 88.5792 136.836 88.7742C136.738 88.9693 136.66 89.1351 136.602 89.2717C136.524 89.4277 136.455 89.5545 136.397 89.652C136.338 89.7691 136.27 89.8763 136.192 89.9739C136.134 90.0714 136.056 90.1787 135.958 90.2957C135.861 90.4128 135.763 90.5395 135.665 90.6761C135.412 90.5786 135.168 90.4615 134.934 90.325C134.719 90.1884 134.524 90.0617 134.349 89.9446C134.134 89.8081 133.939 89.6715 133.764 89.535C133.588 89.3984 133.422 89.2424 133.266 89.0668C133.13 88.9108 132.983 88.745 132.827 88.5694C132.691 88.3939 132.574 88.1988 132.476 87.9843C132.359 88.2378 132.076 88.5987 131.628 89.0668C131.199 89.535 130.633 89.9641 129.931 90.3542C129.228 90.7249 128.409 90.9882 127.473 91.1442C126.556 91.3003 125.542 91.193 124.43 90.8224C123.942 90.6663 123.484 90.442 123.055 90.1494C122.626 89.8373 122.255 89.4667 121.943 89.0376C121.65 88.6084 121.436 88.1208 121.299 87.5746C121.182 87.0089 121.192 86.3848 121.328 85.702C121.465 85.0193 121.709 84.4439 122.06 83.9758C122.411 83.5076 122.83 83.1272 123.318 82.8346C123.806 82.5421 124.352 82.3177 124.957 82.1617C125.561 82.0056 126.185 81.8984 126.829 81.8398C127.336 81.8203 127.844 81.8496 128.351 81.9276C128.78 82.0056 129.228 82.1519 129.697 82.3665C130.165 82.5616 130.565 82.8639 130.896 83.2735C130.877 82.2397 130.838 81.4205 130.779 80.8158C130.74 80.1916 130.701 79.7137 130.662 79.3821C130.584 78.9919 130.516 78.7189 130.457 78.5628C130.36 78.4263 130.253 78.2702 130.135 78.0947C130.038 77.9191 129.911 77.7631 129.755 77.6265C129.599 77.4705 129.404 77.3437 129.17 77.2462C128.936 77.1486 128.663 77.1096 128.351 77.1291C128.019 77.1486 127.756 77.2364 127.561 77.3924C127.366 77.5485 127.21 77.7338 127.093 77.9484C126.995 78.1434 126.936 78.358 126.917 78.5921C126.897 78.8261 126.907 79.031 126.946 79.2065C126.985 79.3236 127.044 79.4503 127.122 79.5869C127.2 79.7039 127.307 79.8307 127.444 79.9673C127.58 80.1038 127.765 80.2208 128 80.3184C127.551 80.3769 127.151 80.4256 126.8 80.4647C126.449 80.4842 126.146 80.5134 125.893 80.5524C125.6 80.5914 125.347 80.6207 125.132 80.6402C124.918 80.6597 124.664 80.6987 124.371 80.7572C124.118 80.7963 123.806 80.845 123.435 80.9035C123.065 80.9621 122.635 81.0401 122.148 81.1376C122.265 81.0011 122.372 80.8743 122.47 80.7572C122.567 80.6207 122.655 80.5037 122.733 80.4061C122.811 80.2891 122.889 80.1818 122.967 80.0843ZM127.356 83.5661C127.005 83.5856 126.654 83.6734 126.303 83.8295C125.951 83.966 125.639 84.1708 125.366 84.4439C125.093 84.6975 124.859 84.9998 124.664 85.3509C124.488 85.6825 124.401 86.0532 124.401 86.4628C124.401 86.8724 124.498 87.2333 124.693 87.5454C124.908 87.838 125.181 88.0818 125.513 88.2768C125.864 88.4719 126.234 88.5889 126.624 88.628C127.034 88.667 127.434 88.628 127.824 88.5109C128.195 88.3744 128.546 88.1598 128.877 87.8672C129.209 87.5551 129.492 87.2235 129.726 86.8724C129.96 86.5018 130.126 86.1409 130.223 85.7898C130.321 85.4192 130.331 85.1169 130.253 84.8828C130.096 84.3756 129.745 84.0245 129.199 83.8295C128.653 83.6149 128.039 83.5271 127.356 83.5661ZM136.789 92.7535C136.984 92.4609 137.14 92.1878 137.257 91.9342C137.374 91.6807 137.472 91.4661 137.55 91.2905C137.628 91.076 137.686 90.8809 137.725 90.7054C137.745 90.5883 137.755 90.247 137.755 89.6813C137.755 89.1156 137.735 88.4036 137.696 87.5454C137.677 86.6871 137.647 85.7215 137.608 84.6487C137.589 83.5759 137.55 82.4835 137.491 81.3717C137.452 80.2598 137.403 79.1773 137.345 78.1239C137.306 77.0706 137.267 76.1246 137.228 75.2858C137.189 74.4275 137.15 73.7253 137.111 73.1791C137.072 72.633 137.043 72.3209 137.023 72.2428C136.984 72.1258 136.916 72.0088 136.818 71.8917C136.623 71.6577 136.292 71.4333 135.823 71.2188C136.818 70.9652 137.579 70.7604 138.106 70.6043C138.418 70.5263 138.691 70.4483 138.925 70.3703C139.139 70.2922 139.354 70.2142 139.569 70.1362C139.744 70.0582 139.939 69.9704 140.154 69.8729C140.368 69.7558 140.563 69.629 140.739 69.4925C140.641 70.0582 140.563 70.6043 140.505 71.131C140.446 71.6577 140.398 72.1453 140.359 72.594C140.32 73.1011 140.3 73.5888 140.3 74.0569C140.203 75.0127 140.144 76.0563 140.125 77.1876C140.125 78.2995 140.134 79.4308 140.154 80.5817C140.173 81.7326 140.212 82.8542 140.271 83.9465C140.329 85.0388 140.388 86.0336 140.446 86.9309C140.524 87.8087 140.593 88.5597 140.651 89.1839C140.729 89.7886 140.788 90.1787 140.827 90.3542C140.905 90.6468 140.983 90.9297 141.061 91.2028C141.139 91.4368 141.227 91.6807 141.324 91.9342C141.422 92.2073 141.539 92.4219 141.675 92.5779H138.837C138.584 92.5779 138.34 92.5877 138.106 92.6072C137.891 92.6267 137.667 92.6462 137.433 92.6657C137.199 92.6852 136.984 92.7145 136.789 92.7535Z" fill="#155E75"/>
</svg>
