<svg width="144" height="24" viewBox="0 0 144 24" fill="none" xmlns="http://www.w3.org/2000/svg">
<g clip-path="url(#clip0_797_12808)">
<path d="M57.8345 17.2688C61.6117 17.2688 63.4432 15.5668 63.4432 13.0232C63.4432 10.6709 61.917 9.61914 59.1508 9.21752L57.4148 8.96887C55.6025 8.72022 55.1637 8.24218 55.1637 7.3051C55.1637 6.0621 55.965 5.22058 57.7772 5.22058C59.5895 5.22058 60.4671 6.04296 60.6388 7.64931H63.0997C63.0997 4.99107 61.3637 3.2699 57.8345 3.2699C54.3052 3.2699 52.5692 5.01021 52.5692 7.45807C52.5692 9.67642 53.6756 10.6709 56.5181 11.0725L58.2541 11.3212C60.3335 11.6271 60.8485 12.2391 60.8485 13.1762C60.8485 14.4384 59.9519 15.3181 57.8915 15.3181C55.774 15.3181 54.9536 14.4957 54.7438 12.6981H52.2256C52.2256 15.605 54.0569 17.2689 57.8343 17.2689L57.8345 17.2688Z" fill="#2C2C2C"/>
<path d="M68.9757 17.2687C72.1997 17.2687 73.993 15.2606 73.993 12.1434C73.993 9.04524 72.1997 7.01801 68.9757 7.01801C65.7707 7.01801 63.9775 9.04512 63.9775 12.1434C63.9775 15.2606 65.7707 17.2687 68.9757 17.2687ZM68.9757 15.3946C67.3541 15.3946 66.4385 14.3237 66.4385 12.1435C66.4385 9.9633 67.3541 8.89239 68.9757 8.89239C70.6163 8.89239 71.5321 9.9633 71.5321 12.1435C71.5321 14.3237 70.6164 15.3946 68.9757 15.3946Z" fill="#2C2C2C"/>
<path d="M79.4673 17.2687C82.5387 17.2687 84.103 15.3755 84.103 13.2527H81.7947C81.6039 14.7252 80.7645 15.3946 79.4673 15.3946C77.903 15.3946 76.9873 14.3237 76.9873 12.1435C76.9873 9.9633 77.903 8.89239 79.4673 8.89239C80.9554 8.89239 81.623 9.79119 81.7947 10.9578H84.103C84.103 9.02622 82.6531 7.01813 79.4673 7.01813C76.3195 7.01813 74.5264 9.04524 74.5264 12.1435C74.5264 15.2608 76.3195 17.2689 79.4673 17.2689V17.2687Z" fill="#2C2C2C"/>
<path d="M87.2876 17.0775V7.2094H84.8266V17.0775H87.2876ZM86.0666 5.73688C86.9822 5.73688 87.4783 5.18229 87.4783 4.45547C87.4783 3.72878 86.9824 3.17419 86.0666 3.17419C85.1509 3.17419 84.6357 3.72878 84.6357 4.45547C84.6357 5.18217 85.1508 5.73688 86.0666 5.73688Z" fill="#2C2C2C"/>
<path d="M91.7515 17.2688C93.4303 17.2688 94.4223 16.6759 94.9755 15.5476C94.9755 16.3126 95.109 16.7142 95.3952 17.0775H97.6273C97.4366 16.7525 97.322 15.8918 97.322 14.5531V10.3267C97.322 8.31857 96.063 7.01815 93.0296 7.01815C89.9964 7.01815 88.7374 8.31857 88.7374 10.3267H91.1792C91.2747 9.27478 91.9041 8.7776 93.0487 8.7776C94.2697 8.7776 94.861 9.35132 94.861 10.3267C94.861 10.843 94.5748 11.1108 93.5829 11.2063L91.5797 11.3784C89.0997 11.5697 88.2031 12.7745 88.2031 14.2853C88.2031 16.1021 89.4431 17.2688 91.7514 17.2688H91.7515ZM92.4764 15.5859C91.2173 15.5859 90.6642 14.993 90.6642 14.1133C90.6642 13.4058 91.1601 12.8894 92.4002 12.7747L93.5639 12.6791C94.2315 12.6217 94.6894 12.507 94.8611 12.2966V12.985C94.8611 14.4194 94.0026 15.586 92.4764 15.586V15.5859Z" fill="#2C2C2C"/>
<path d="M101.079 17.0775V3.461H98.6182V17.0775H101.079Z" fill="#2C2C2C"/>
<path d="M113.917 13.31C113.917 11.6845 113.04 10.4222 111.266 10.078C112.792 9.71468 113.536 8.58637 113.536 7.09471C113.536 4.91451 111.933 3.46112 109.034 3.46112H102.528V17.0777H109.415C112.315 17.0777 113.917 15.4903 113.917 13.3101V13.31ZM111.323 13.1188C111.323 14.3426 110.579 15.1267 109.129 15.1267H105.123V11.0915H109.129C110.579 11.0915 111.323 11.8948 111.323 13.1188ZM110.941 7.30496C110.941 8.52896 110.197 9.1791 108.747 9.1791H105.123V5.41156H108.747C110.197 5.41156 110.941 6.08084 110.941 7.30484V7.30496Z" fill="#2C2C2C"/>
<path d="M117.293 17.0775V7.2094H114.832V17.0775H117.293ZM116.072 5.73688C116.988 5.73688 117.484 5.18229 117.484 4.45547C117.484 3.72878 116.988 3.17419 116.072 3.17419C115.157 3.17419 114.642 3.72878 114.642 4.45547C114.642 5.18217 115.157 5.73688 116.072 5.73688Z" fill="#2C2C2C"/>
<path d="M118.724 20.8258H119.697C122.101 20.8258 123.398 19.8313 124.581 16.6376L128.091 7.2094H125.515L122.959 15.165L120.403 7.2094H117.827L121.337 16.6376C121.471 16.9818 121.528 17.307 121.528 17.5938C121.528 18.5118 120.86 19.0664 119.716 19.0664H118.724V20.8258H118.724Z" fill="#2C2C2C"/>
<path d="M131.142 17.2687C132.821 17.2687 133.813 16.6759 134.366 15.5476C134.366 16.3125 134.5 16.7142 134.786 17.0775H137.018C136.827 16.7524 136.713 15.8918 136.713 14.5531V10.3266C136.713 8.31854 135.454 7.01813 132.42 7.01813C129.387 7.01813 128.128 8.31854 128.128 10.3266H130.57C130.665 9.27475 131.295 8.77757 132.439 8.77757C133.66 8.77757 134.252 9.3513 134.252 10.3266C134.252 10.843 133.965 11.1107 132.973 11.2063L130.97 11.3784C128.49 11.5696 127.594 12.7745 127.594 14.2853C127.594 16.102 128.834 17.2687 131.142 17.2687H131.142ZM131.867 15.5858C130.608 15.5858 130.055 14.993 130.055 14.1133C130.055 13.4058 130.551 12.8893 131.791 12.7746L132.955 12.6791C133.622 12.6217 134.08 12.507 134.252 12.2966V12.985C134.252 14.4194 133.393 15.586 131.867 15.586V15.5858Z" fill="#2C2C2C"/>
<path d="M140.471 17.0775V12.4877C140.471 10.4796 141.482 9.35132 142.989 9.35132L144 9.37046V7.20939C143.771 7.15199 143.37 7.07544 143.103 7.07544C141.73 7.07544 140.871 7.6683 140.356 9.40861V7.20939H138.01V17.0775H140.471H140.471Z" fill="#2C2C2C"/>
<path fill-rule="evenodd" clip-rule="evenodd" d="M36.4703 9.53674e-07H27.2243H24.7398C24.6517 9.53674e-07 24.5664 0.0116063 24.4852 0.0333355H9.46127C7.14457 0.0333355 5.06913 1.37696 4.14952 3.51457C3.84889 4.21349 3.68226 4.98388 3.68226 5.79342C3.68226 8.74995 6.15254 11.3535 9.09081 11.5577L14.5789 11.5776C15.5631 11.581 16.3062 12.2528 16.3062 13.2713C16.3062 13.5121 16.196 14.0499 16.0253 14.2208V14.221L15.7758 14.5237C14.113 16.1337 12.4875 17.7821 10.8533 19.4205V19.4207L10.2699 19.8441C9.59576 20.2548 8.80447 20.4914 7.95814 20.4914C5.49611 20.4914 3.50011 18.4905 3.50011 16.0224C3.50011 15.1215 3.76613 14.2827 4.22378 13.5809C3.23939 12.9095 2.38936 12.0549 1.72173 11.0662C1.59045 11.2318 1.46581 11.403 1.34783 11.5789C0.496814 12.8489 0 14.3774 0 16.0224C0 19.9087 2.77189 23.1458 6.44196 23.8554C6.93274 23.9505 7.43953 24.0001 7.95802 24.0001C9.86547 24.0001 11.6164 23.3274 12.9872 22.2054L14.14 21.0463L18.6398 16.5227L21.4043 13.7435C22.0161 13.1283 22.1112 12.8305 22.1185 12.2898C22.1292 11.4813 22.1123 10.6598 22.1123 9.84986V9.82406V9.79838C22.0997 8.93452 21.4554 8.20919 20.6019 8.09795H20.1502H18.6398H14.6959H9.41545C8.15297 8.09795 7.12954 7.07198 7.12954 5.80651C7.12954 4.54091 8.15297 3.51494 9.41545 3.51494V3.51482H25.8834H26.3757H28.8407H28.8601C28.9481 3.51482 29.0336 3.50321 29.1149 3.48148H36.5158V3.48161C37.7782 3.48161 38.8016 4.50757 38.8016 5.77317C38.8016 7.03877 37.7781 8.06474 36.5158 8.06474H31.2354H27.2915H25.781H25.3293C24.476 8.17585 23.8314 8.90143 23.8189 9.76492V9.79085V9.81653C23.8189 10.6267 23.802 11.4481 23.8127 12.2566C23.82 12.7974 23.9151 13.095 24.527 13.71L27.2915 16.4894L31.7912 21.0131H31.7913L32.9439 22.172C34.3148 23.2941 36.0656 23.9668 37.9732 23.9668C38.4916 23.9668 38.9984 23.9172 39.4891 23.8222C43.159 23.1124 45.931 19.8755 45.931 15.9892C45.931 14.3442 45.4344 12.8155 44.5832 11.5457C43.7898 10.3619 42.6886 9.40293 41.3943 8.78439C41.5358 8.55463 41.6619 8.31425 41.7708 8.06449C42.0783 7.35879 42.249 6.5795 42.249 5.75996C42.249 4.95067 42.0824 4.18003 41.7818 3.48124C40.8624 1.34375 38.7866 9.53674e-07 36.47 9.53674e-07L36.4703 9.53674e-07ZM30.1557 14.4904L29.9061 14.1875C29.7354 14.0164 29.6252 13.4786 29.6252 13.238C29.6252 12.2192 30.3686 11.5477 31.3526 11.5441L37.9734 11.52C38.1347 11.5196 38.2942 11.5287 38.4511 11.5456C40.6884 11.7845 42.4313 13.6826 42.4313 15.9891C42.4313 18.4571 40.4354 20.458 37.9735 20.458C37.1271 20.458 36.3359 20.2215 35.6618 19.8107L35.0784 19.3872C33.4439 17.7488 31.8185 16.1003 30.1558 14.4903L30.1557 14.4904Z" fill="#2563EB"/>
</g>
<defs>
<clipPath id="clip0_797_12808">
<rect width="144" height="24" fill="white"/>
</clipPath>
</defs>
</svg>
