<svg width="33" height="32" viewBox="0 0 33 32" fill="none" xmlns="http://www.w3.org/2000/svg">
<path d="M32 16C32 7.43959 25.0604 0.5 16.5 0.5C7.93959 0.5 1 7.43959 1 16C1 24.5604 7.93959 31.5 16.5 31.5C25.0604 31.5 32 24.5604 32 16Z" fill="white"/>
<path d="M32 16C32 7.43959 25.0604 0.5 16.5 0.5C7.93959 0.5 1 7.43959 1 16C1 24.5604 7.93959 31.5 16.5 31.5C25.0604 31.5 32 24.5604 32 16Z" stroke="#E2E8F0"/>
<path d="M17.1667 19.3333L20.5 16L17.1667 12.6667M12.5 19.3333L15.8333 16L12.5 12.6667" stroke="#1F2937" stroke-width="1.5" stroke-linecap="round" stroke-linejoin="round"/>
</svg>
