<svg width="40" height="40" viewBox="0 0 40 40" fill="none" xmlns="http://www.w3.org/2000/svg">
<path d="M0.5 8C0.5 3.85786 3.85786 0.5 8 0.5H32C36.1421 0.5 39.5 3.85786 39.5 8V32C39.5 36.1421 36.1421 39.5 32 39.5H8C3.85786 39.5 0.5 36.1421 0.5 32V8Z" fill="white"/>
<path d="M0.5 8C0.5 3.85786 3.85786 0.5 8 0.5H32C36.1421 0.5 39.5 3.85786 39.5 8V32C39.5 36.1421 36.1421 39.5 32 39.5H8C3.85786 39.5 0.5 36.1421 0.5 32V8Z" stroke="#E2E8F0"/>
<path fill-rule="evenodd" clip-rule="evenodd" d="M20.8703 14.0323C21.0244 14.1048 21.1135 14.2839 21.0859 14.4658L20.4292 18.8H23.6364C23.7741 18.8 23.9 18.8856 23.9616 19.0211C24.0232 19.1566 24.0099 19.3188 23.9272 19.44L19.5636 25.84C19.463 25.9875 19.2838 26.0402 19.1297 25.9678C18.9755 25.8952 18.8865 25.7162 18.914 25.5342L19.5707 21.2H16.3636C16.2259 21.2 16.1 21.1144 16.0384 20.9789C15.9768 20.8434 15.9901 20.6812 16.0727 20.56L20.4364 14.16C20.5369 14.0125 20.7162 13.9597 20.8703 14.0323Z" stroke="#2563EB"/>
</svg>
